<?xml version="1.0" encoding="UTF-8"?>
<!DOCTYPE svg PUBLIC "-//W3C//DTD SVG 1.1//EN" "http://www.w3.org/Graphics/SVG/1.1/DTD/svg11.dtd">
<!-- Creator: CorelDRAW X5 -->
<svg xmlns="http://www.w3.org/2000/svg" xml:space="preserve" width="20mm" height="20mm" style="shape-rendering:geometricPrecision; text-rendering:geometricPrecision; image-rendering:optimizeQuality; fill-rule:evenodd; clip-rule:evenodd"
viewBox="0 0 451 451"
 xmlns:xlink="http://www.w3.org/1999/xlink">
 <defs>
  <style type="text/css">
   <![CDATA[
    .str1 {stroke:#FEFEFE;stroke-width:4.42478}
    .str3 {stroke:#FEFEFE;stroke-width:6.63717}
    .str2 {stroke:#0E4169;stroke-width:6.63717}
    .str0 {stroke:#0E4169;stroke-width:8.84956}
    .fil2 {fill:none}
    .fil1 {fill:#FEFEFE}
    .fil0 {fill:#0E4169}
    .fil3 {fill:#FEFEFE;fill-rule:nonzero}
    .fil4 {fill:#0E4169;fill-rule:nonzero}
   ]]>
  </style>
   <clipPath id="id0">
    <path d="M4 4l442 0 0 442 -442 0 0 -442z"/>
   </clipPath>
 </defs>
 <g id="Layer_x0020_1">
  <metadata id="CorelCorpID_0Corel-Layer"/>
  <g>
  </g>
  <g style="clip-path:url(#id0)">
   <g>
    <rect class="fil0" x="4" y="142" width="442" height="305"/>
    <ellipse class="fil1" cx="226" cy="38" rx="332" ry="166"/>
   </g>
  </g>
  <polygon class="fil2 str0" points="4,4 447,4 447,447 4,447 "/>
  <path class="fil3" d="M27 243l8 0c0,0 0,0 0,0l0 36 30 0 0 -36c0,-1 7,0 8,0 0,0 0,0 0,0l0 40c0,2 -1,3 -3,4l-39 0c-2,0 -3,-1 -4,-3 0,0 0,-1 0,-2l0 -39c0,0 0,0 0,0zm60 0l37 0c3,0 5,1 5,4l0 13c0,0 0,0 0,0l-8 0c0,0 0,0 0,0l0 -9 -30 0 0 28 30 0 0 -4 -8 0c0,0 0,0 0,0l0 -8c0,0 0,0 0,0l16 0c0,0 0,0 0,0 0,6 0,11 0,17 0,2 -1,3 -3,4l-39 0c-2,0 -3,-1 -4,-3 0,0 0,-1 0,-2l0 -35c0,-2 1,-4 3,-4 1,0 1,0 2,0zm52 0l8 0c0,0 0,0 0,0l0 18 30 0 0 -18c0,-1 7,0 8,0 0,0 0,0 0,0l0 40c0,3 -2,4 -3,4 0,0 0,0 -1,0l-42 0c0,0 0,0 0,0l0 -8c0,0 0,0 0,0l38 0 0 -10 -34 0c-3,0 -4,-2 -4,-4l0 -22c0,0 0,0 0,0zm56 0l8 0c0,0 3,6 7,17 0,0 3,6 7,17 0,0 3,-6 7,-17 5,-11 7,-17 7,-17l8 0 0 0c-12,29 -19,44 -19,44l-8 0c0,0 -3,-7 -9,-22 -6,-15 -9,-22 -9,-22l0 0zm52 0l8 0c0,0 0,0 0,0l0 44c0,0 0,0 0,0l-8 0c0,0 0,0 0,0l0 -44c0,0 0,0 0,0zm20 0l46 0c0,0 0,0 0,0l0 8c0,0 0,0 0,0l-19 0 0 36c0,0 0,0 0,0l-8 0c0,0 0,0 0,0l0 -36 -18 0c0,0 0,0 0,0l0 -8c0,0 0,0 0,0zm61 0l41 0c0,0 0,0 0,0l0 8c0,0 0,0 0,0l-38 0 0 10 32 0c0,0 0,0 0,0l0 8c0,0 0,0 0,0l-32 0 0 10 38 0c0,0 0,0 0,0l0 8c0,0 0,0 0,0l-42 0c-3,0 -4,-2 -4,-4l0 -35c0,-3 2,-5 5,-5zm51 0l8 0c0,0 0,0 0,0l0 36 38 0c0,0 0,0 0,0l0 8c0,0 0,0 0,0l-42 0c-2,0 -3,-1 -4,-3 0,0 0,-1 0,-2l0 -39c0,0 0,0 0,0zm-338 -11l8 0c0,0 0,0 0,0l0 8c0,0 0,0 0,0l-8 0c0,0 0,0 0,0l0 -8c0,0 0,0 0,0zm12 0l8 0c0,0 0,0 0,0l0 8c0,0 0,0 0,0l-8 0c0,0 0,0 0,0l0 -8c0,0 0,0 0,0z"/>
  <line class="fil2 str1" x1="43" y1="381" x2="410" y2= "381" />
  <circle class="fil0 str2" cx="226" cy="369" r="43"/>
  <circle class="fil0 str3" cx="226" cy="369" r="35"/>
  <path class="fil1 str1" d="M226 369l12 -33c11,4 19,13 22,24l-34 9z"/>
  <path class="fil4" d="M133 81l14 0c0,0 1,0 1,1l0 33 39 0 16 -33c0,0 0,-1 1,-1l14 0c0,0 1,0 1,1l-18 36c-2,4 -2,4 -6,5 4,1 5,3 6,5l18 34c1,1 -14,1 -15,1 -1,0 -15,-30 -17,-33l-39 0 0 33c0,1 -13,1 -15,1 0,0 -1,0 -1,-1l0 -81c0,0 0,-1 1,-1zm213 0l78 0c0,0 1,0 1,1l0 14c0,0 0,1 -1,1l-70 0 0 18 61 0c6,0 9,3 9,8l0 33c-1,5 -3,8 -8,8l-77 0c0,0 -1,0 -1,-1l0 -14c0,0 0,-1 1,-1l70 0 0 -18 -63 0c-4,0 -6,-2 -7,-5 0,-1 -1,-2 -1,-3l0 -31c0,-4 2,-7 6,-8l2 0zm-242 0c5,1 8,3 8,8l0 36 0 15 0 16c0,3 -2,5 -6,7l-72 0c-4,0 -6,-2 -7,-5 0,-1 -1,-2 -1,-3l0 -66c0,-4 3,-6 8,-7l70 0zm-63 15l0 51 55 0 0 -7 0 -15 0 -28 -55 0zm270 -15c5,1 8,3 8,8l0 36 0 15 0 16c0,3 -2,5 -6,7l-72 0c-4,0 -6,-2 -7,-5 0,-1 -1,-2 -1,-3l0 -66c0,-4 3,-6 8,-7l70 0zm-63 15l0 51 55 0 0 -7 0 -15 0 -28 -55 0z"/>
 </g>
</svg>
